<?xml version="1.0" encoding="utf-8"?>
<!-- Generator: Adobe Illustrator 16.0.0, SVG Export Plug-In . SVG Version: 6.00 Build 0)  -->
<!DOCTYPE svg PUBLIC "-//W3C//DTD SVG 1.1//EN" "http://www.w3.org/Graphics/SVG/1.1/DTD/svg11.dtd">
<svg version="1.1" id="图层_1" xmlns="http://www.w3.org/2000/svg" xmlns:xlink="http://www.w3.org/1999/xlink" x="0px" y="0px"
	 width="500px" height="500px" viewBox="0 0 500 500" enable-background="new 0 0 500 500" xml:space="preserve">
<g>
	<path fill="none" stroke="#000000" stroke-width="3" stroke-miterlimit="10" d="M250.506,451.873c0,0-266.421-2.028-118.46-51.644
		c0,0,73.451-14.177,118.46-11.076c0,0,77.347-3.986,119.433,11.962C369.938,401.115,526.673,454.788,250.506,451.873z"/>
	<path fill="none" stroke="#000000" stroke-width="3" stroke-miterlimit="10" d="M249.797,331.937l-200.561,0.812l-0.308-2.754
		l-13.934,0.324c-0.163,8.106-3.402,8.307-3.402,8.307c-4.213-0.118-4.213-9.749-4.213-9.749l-13.406,0.146l0.138-5.246h12.46
		c1.457-9.133,3.904-8.85,3.904-8.85c4.212,0.81,4.682,8.85,4.682,8.85h13.771l0.178-2.045l193.14-0.324l2.106-8.911l-13.157-0.81
		l-10.854-47.957c34.51-11.989,59.621,0,59.621,0l-11.915,48.342h-11.309l2.285,9.747l190.972-0.709l0.65,2.038l14.979,0.069
		c0,0,0.336-10.216,3.614-10.397c3.279-0.181,4.802,10.328,4.802,10.328h12.996v5.316h-13.438c0,0,0,10.189-3.987,10.163
		c-3.987-0.026-3.848-10.163-3.848-10.163h-15.2v3.544h-200.06v57.146"/>
	<g>
		<path fill="none" stroke="#000000" stroke-width="3" stroke-miterlimit="10" d="M224.855,269.133l1.641,4.335 M230.363,272.18
			l-0.919-4.688 M234.015,266.438l1.172,4.864 M240.46,269.836l-0.955-4.922 M245.967,269.133l-0.857-5.175 M250.506,262.219v8.554
			 M255.693,264.211l-1.055,4.922 M259.813,269.836l1.154-4.922 M263.661,270.345l2.228-4.846 M269.854,267.023l-1.388,5.49
			 M272.081,274.406l2.577-5.273"/>
	</g>
	<path fill="none" stroke="#000000" stroke-width="3" stroke-miterlimit="10" d="M248.174,330.536l2.332-57.323
		c0,0,2.004,56.972,2.004,57.323"/>
	<path fill="none" stroke="#000000" stroke-width="3" stroke-miterlimit="10" d="M393.838,332.514v24.614H106.621v-24.614"/>
	<path fill="none" stroke="#000000" stroke-width="3" stroke-miterlimit="10" d="M106.621,338.625h286.036"/>
	<path fill="none" stroke="#000000" stroke-width="3" stroke-miterlimit="10" d="M185.483,334.321h9.278v21.261h-9.278V334.321z"/>
	<g>
		<path fill="none" stroke="#000000" stroke-width="3" stroke-miterlimit="10" d="M96.575,320.2v-39.999l58.37-17.983
			c0,0,47.547-13.328-4.252-30.723c0,0-64.556-15.462-119.06,2.707c0,0-37.497,12.858,5.025,30.009l58.735,15.991"/>
		<path fill="none" stroke="#000000" stroke-width="3" stroke-miterlimit="10" d="M32.037,262.219c0,0,51.745,16.796,112.261,3.281"
			/>
	</g>
	<path fill="none" stroke="#000000" stroke-width="3" stroke-miterlimit="10" d="M405.307,321.349v-39.043l58.371-17.983
		c0,0,47.547-13.328-4.253-30.723c0,0-64.556-15.463-119.061,2.706c0,0-37.496,12.858,5.026,30.009l58.735,15.991"/>
	<path fill="none" stroke="#000000" stroke-width="3" stroke-miterlimit="10" d="M340.768,264.322c0,0,51.746,16.797,112.262,3.281"
		/>
</g>
</svg>
