<?xml version="1.0" encoding="utf-8"?>
<!-- Generator: Adobe Illustrator 17.0.0, SVG Export Plug-In . SVG Version: 6.00 Build 0)  -->
<!DOCTYPE svg PUBLIC "-//W3C//DTD SVG 1.1//EN" "http://www.w3.org/Graphics/SVG/1.1/DTD/svg11.dtd">
<svg version="1.1" id="Calque_1" xmlns="http://www.w3.org/2000/svg" xmlns:xlink="http://www.w3.org/1999/xlink" x="0px" y="0px"
	 width="90px" height="62px" viewBox="0 0 90 62" enable-background="new 0 0 90 62" xml:space="preserve">
<path fill="#FFFFFF" stroke="#000000" stroke-width="3" stroke-miterlimit="10" d="M72.615,20.647
	c-1.3-10.33-11.237-18.365-23.308-18.365c-8.25,0-15.5,3.756-19.681,9.43c-0.625-0.035-1.254-0.058-1.89-0.058
	c-14.191,0-25.694,8.741-25.694,19.524s11.504,19.524,25.694,19.524c0.027,0,0.054-0.002,0.081-0.002
	c3.22,5.479,10.06,9.26,17.977,9.26c7.092,0,13.315-3.037,16.851-7.608c2.493,1.432,5.379,2.255,8.46,2.255
	c9.397,0,17.015-7.618,17.015-17.015C88.118,28.704,81.303,21.412,72.615,20.647z"/>
</svg>
