<?xml version="1.0" encoding="utf-8"?>
<!-- Generator: Adobe Illustrator 16.0.0, SVG Export Plug-In . SVG Version: 6.00 Build 0)  -->
<!DOCTYPE svg PUBLIC "-//W3C//DTD SVG 1.1//EN" "http://www.w3.org/Graphics/SVG/1.1/DTD/svg11.dtd">
<svg version="1.1" id="图层_1" xmlns="http://www.w3.org/2000/svg" xmlns:xlink="http://www.w3.org/1999/xlink" x="0px" y="0px"
	 width="480.476px" height="275.823px" viewBox="0 0 480.476 275.823" enable-background="new 0 0 480.476 275.823"
	 xml:space="preserve">
<g>
	<path fill="none" stroke="#040000" stroke-width="3" stroke-miterlimit="10" d="M48.217,275.063v-169.04H8.922
		c0,0-7.704-4.369-7.414-13.047c0.291-8.68,7.414-11.419,7.414-11.419h463.381c0,0,6.646,3.508,6.673,11.063
		c0.027,7.556-6.673,13.403-6.673,13.403h-40.036l0.741,169.04"/>
	<path fill="none" stroke="#040000" stroke-width="3" stroke-miterlimit="10" d="M67.493,275.063V106.765h345.496v168.3"/>
	<path fill="none" stroke="#040000" stroke-width="3" stroke-miterlimit="10" d="M33.284,93.865c0,3.531-2.864,6.394-6.395,6.394
		c-3.532,0-6.396-2.861-6.396-6.394s2.862-6.396,6.396-6.396C30.42,87.471,33.284,90.333,33.284,93.865z"/>
	<path fill="none" stroke="#040000" stroke-width="3" stroke-miterlimit="10" d="M460.024,94.176c0,3.532-2.864,6.396-6.395,6.396
		c-3.532,0-6.395-2.862-6.395-6.396c0-3.532,2.862-6.395,6.395-6.395C457.16,87.781,460.024,90.642,460.024,94.176z"/>
	<path fill="#FFFFFF" stroke="#040000" stroke-width="3" stroke-miterlimit="10" d="M302.52,274.323H178.705V14.013H302.52V274.323z
		"/>
	<path fill="#FFFFFF" stroke="#040000" stroke-width="3" stroke-miterlimit="10" d="M277.313,80.074h-72.658
		c0,0,4.688-35.728,35.588-36.328C271.143,43.141,277.313,80.074,277.313,80.074z"/>
	<path fill="none" stroke="#040000" stroke-width="3" stroke-miterlimit="10" d="M192.42,13.337V1.513l16.365,0.143v11.683"/>
	<path fill="none" stroke="#040000" stroke-width="3" stroke-miterlimit="10" d="M258.036,120.851c0,3.531-2.864,6.396-6.396,6.396
		c-3.532,0-6.396-2.863-6.396-6.396c0-3.531,2.863-6.394,6.396-6.394C255.172,114.457,258.036,117.32,258.036,120.851z"/>
	<path fill="none" stroke="#040000" stroke-width="3" stroke-miterlimit="10" d="M221.574,106.765c0,3.532-2.863,6.396-6.395,6.396
		c-3.532,0-6.395-2.862-6.395-6.396c0-3.532,2.862-6.394,6.395-6.394C218.711,100.371,221.574,103.232,221.574,106.765z"/>
	<path fill="none" stroke="#040000" stroke-width="3" stroke-miterlimit="10" d="M262.021,162.795
		c0,6.809-5.521,12.327-12.326,12.327c-6.808,0-12.326-5.52-12.326-12.327c0-6.806,5.519-12.324,12.326-12.324
		C256.5,150.471,262.021,155.989,262.021,162.795z"/>
	<path fill="none" stroke="#040000" stroke-width="3" stroke-miterlimit="10" d="M239.5,79.32l10.937-19.306"/>
</g>
</svg>
