<?xml version="1.0" encoding="utf-8"?>
<!-- Generator: Adobe Illustrator 16.0.0, SVG Export Plug-In . SVG Version: 6.00 Build 0)  -->
<!DOCTYPE svg PUBLIC "-//W3C//DTD SVG 1.1//EN" "http://www.w3.org/Graphics/SVG/1.1/DTD/svg11.dtd">
<svg version="1.1" id="图层_1" xmlns="http://www.w3.org/2000/svg" xmlns:xlink="http://www.w3.org/1999/xlink" x="0px" y="0px"
	 width="205.276px" height="118.586px" viewBox="0 0 205.276 118.586" enable-background="new 0 0 205.276 118.586"
	 xml:space="preserve">
<g>
	<path fill="none" stroke="#040000" stroke-width="3" stroke-miterlimit="10" d="M21.291,117.399V45.788H4.644
		c0,0-3.264-1.851-3.141-5.527c0.123-3.677,3.141-4.837,3.141-4.837h196.305c0,0,2.815,1.486,2.827,4.687s-2.827,5.678-2.827,5.678
		h-16.961l0.314,71.612"/>
	<path fill="none" stroke="#040000" stroke-width="3" stroke-miterlimit="10" d="M29.457,117.399V46.102h146.365v71.297"/>
	<path fill="none" stroke="#040000" stroke-width="3" stroke-miterlimit="10" d="M14.965,40.637c0,1.496-1.213,2.708-2.709,2.708
		c-1.496,0-2.709-1.212-2.709-2.708s1.213-2.709,2.709-2.709C13.751,37.928,14.965,39.141,14.965,40.637z"/>
	<path fill="none" stroke="#040000" stroke-width="3" stroke-miterlimit="10" d="M195.748,40.769c0,1.497-1.214,2.709-2.709,2.709
		c-1.496,0-2.709-1.212-2.709-2.709c0-1.496,1.213-2.709,2.709-2.709C194.534,38.06,195.748,39.271,195.748,40.769z"/>
	<path fill="#FFFFFF" stroke="#040000" stroke-width="3" stroke-miterlimit="10" d="M129.023,117.086H76.571V6.809h52.453V117.086z"
		/>
	<path fill="#FFFFFF" stroke="#040000" stroke-width="3" stroke-miterlimit="10" d="M118.345,34.795H87.563
		c0,0,1.986-15.136,15.077-15.39C115.73,19.148,118.345,34.795,118.345,34.795z"/>
	<path fill="none" stroke="#040000" stroke-width="3" stroke-miterlimit="10" d="M82.381,6.522V1.513l6.933,0.061v4.949"/>
	<path fill="none" stroke="#040000" stroke-width="3" stroke-miterlimit="10" d="M110.178,52.069c0,1.496-1.213,2.709-2.709,2.709
		s-2.709-1.213-2.709-2.709s1.213-2.708,2.709-2.708S110.178,50.574,110.178,52.069z"/>
	<path fill="none" stroke="#040000" stroke-width="3" stroke-miterlimit="10" d="M94.731,46.102c0,1.496-1.213,2.709-2.709,2.709
		s-2.709-1.212-2.709-2.709s1.213-2.709,2.709-2.709S94.731,44.605,94.731,46.102z"/>
	<path fill="none" stroke="#040000" stroke-width="3" stroke-miterlimit="10" d="M111.866,69.838c0,2.885-2.339,5.223-5.222,5.223
		c-2.884,0-5.222-2.338-5.222-5.223c0-2.883,2.338-5.221,5.222-5.221C109.527,64.617,111.866,66.955,111.866,69.838z"/>
	<path fill="none" stroke="#040000" stroke-width="3" stroke-miterlimit="10" d="M102.326,34.476l4.633-8.179"/>
</g>
</svg>
