<?xml version="1.0" encoding="utf-8"?>
<!-- Generator: Adobe Illustrator 16.0.0, SVG Export Plug-In . SVG Version: 6.00 Build 0)  -->
<!DOCTYPE svg PUBLIC "-//W3C//DTD SVG 1.1//EN" "http://www.w3.org/Graphics/SVG/1.1/DTD/svg11.dtd">
<svg version="1.1" id="图层_1" xmlns="http://www.w3.org/2000/svg" xmlns:xlink="http://www.w3.org/1999/xlink" x="0px" y="0px"
	 width="348.5px" height="234.508px" viewBox="0 0 348.5 234.508" enable-background="new 0 0 348.5 234.508" xml:space="preserve">
<path fill="#FFFFFF" stroke="#040000" stroke-width="3" stroke-miterlimit="10" d="M284.767,75.214
	C279.545,33.751,239.662,1.5,191.211,1.5c-33.112,0-62.212,15.077-78.994,37.851c-2.509-0.139-5.033-0.233-7.587-0.233
	C47.67,39.118,1.5,74.203,1.5,117.482c0,43.281,46.174,78.368,103.13,78.368c0.11,0,0.217-0.009,0.326-0.009
	c12.925,21.994,40.378,37.167,72.156,37.167c28.469,0,53.445-12.189,67.635-30.538c10.011,5.75,21.59,9.055,33.961,9.055
	c37.715,0,68.293-30.582,68.293-68.298C346.992,107.554,319.637,78.285,284.767,75.214z"/>
<text transform="matrix(1 0 0 1 44.6768 130.395)" font-family="'FZZBHJW--GB1-0'" font-size="14">啊哦！请展开你的浏览器窗口以容纳我！</text>
</svg>
