<?xml version="1.0" encoding="utf-8"?>
<!-- Generator: Adobe Illustrator 16.0.0, SVG Export Plug-In . SVG Version: 6.00 Build 0)  -->
<!DOCTYPE svg PUBLIC "-//W3C//DTD SVG 1.1//EN" "http://www.w3.org/Graphics/SVG/1.1/DTD/svg11.dtd">
<svg version="1.1" id="图层_1" xmlns="http://www.w3.org/2000/svg" xmlns:xlink="http://www.w3.org/1999/xlink" x="0px" y="0px"
	 width="500px" height="500px" viewBox="0 0 500 500" enable-background="new 0 0 500 500" xml:space="preserve">
<g>
	<path fill="none" stroke="#000000" stroke-width="3" stroke-miterlimit="10" d="M15.622,423.556L52.539,276.32l25.049,13.337
		l0.296,9.089l12.798,0.513l11.956,8.001l62.624,36.276l-1.139,2.667l195.272,0.533l-0.569-6.401l9.109-3.735l12.524,2.134
		l38.713-20.271l-0.569-20.805l13.094-8.002h11.386l22.772-13.87l13.663,147.769l-461.689-0.421"/>
	<path fill="none" stroke="#000000" stroke-width="3" stroke-miterlimit="10" d="M90.682,299.259l-13.729,123.57l-32.517-0.256
		l19.488-124.914l13.959,1.087"/>
	<path fill="none" stroke="#000000" stroke-width="3" stroke-miterlimit="10" d="M443.083,289.657l11.386,128.073l-360.94-0.852
		l9.109-109.618"/>
	<path fill="none" stroke="#000000" stroke-width="3" stroke-miterlimit="10" d="M438.254,416.663l-6.558-127.006"/>
	<path fill="none" stroke="#000000" stroke-width="3" stroke-miterlimit="10" d="M366.795,384.08v-46.965"/>
	<path fill="none" stroke="#000000" stroke-width="3" stroke-miterlimit="10" d="M359.395,383.013v-36.276"/>
	<path fill="none" stroke="#000000" stroke-width="3" stroke-miterlimit="10" d="M158.212,383.022l0.312-32.656l5.599-4.162"/>
	<path fill="none" stroke="#000000" stroke-width="3" stroke-miterlimit="10" d="M100.906,417.456l8.053-33.271h316.252
		l4.269,32.208"/>
	<path fill="none" stroke="#000000" stroke-width="3" stroke-miterlimit="10" d="M237.2,382.413l-0.27-21.269l55.5,0.052v21.926"/>
	<path fill="none" stroke="#000000" stroke-width="3" stroke-miterlimit="10" d="M419.156,384.186l0.015-65.722"/>
	<path fill="none" stroke="#000000" stroke-width="3" stroke-miterlimit="10" d="M239.069,260.205"/>
	<path fill="none" stroke="#000000" stroke-width="3" stroke-miterlimit="10" d="M218.61,259.086c0,0-9.515,8.104-19.03,2.702
		c-9.515-5.403-25.95,8.375-25.95,8.375c1.601-1.101,9.515-13.508,10.668-17.021c1.852-5.643-2.883-12.698-2.883-12.698
		c11.252-7.024,19.318,4.593,23.932,3.782s15.282-7.296,15.282-7.296v147.15"/>
	<path fill="none" stroke="#000000" stroke-width="3" stroke-miterlimit="10" d="M263.302,241.562c0,0-7.208,5.403-16.724,0
		c-9.515-5.403-29.986,6.986-29.986,6.986s8.066-7.336,8.073-13.24c0.008-5.903-5.665-14.49-5.665-14.49
		c11.252-7.024,24.119,2.602,28.732,1.792c4.613-0.811,17.012-4.323,17.012-4.323V384.89"/>
	<path fill="none" stroke="#000000" stroke-width="3" stroke-miterlimit="10" d="M305.11,253.142c0,0-3.165,9.186-12.68,3.783
		c-9.515-5.403-23.938,6.484-23.938,6.484s5.183-5.714,5.19-11.618c0.007-5.903-3.619-14.387-3.619-14.387
		c11.253-7.025,20.919,3.309,25.532,2.499c4.613-0.811,11.533-4.595,11.533-4.595v147.15"/>
	<path fill="none" stroke="#000000" stroke-miterlimit="10" d="M168.318,403.248c0-0.353,0.184-0.53,0.553-0.53
		c0.184,0,0.368,0.037,0.554,0.106c0.276,0.071,0.46,0.106,0.553,0.106c0.737-0.07,1.843-0.388,3.319-0.955
		c0-0.777-0.048-1.343-0.138-1.697c-0.093,0-0.276,0.037-0.554,0.106c-2.212,0.496-3.965,0.92-5.255,1.273
		c-1.016,0.354-1.936,0.496-2.766,0.424c-1.569,2.688-3.734,4.844-6.5,6.47c-0.276,0.143-0.462,0.177-0.553,0.106
		c-0.093-0.07-0.048-0.247,0.138-0.53c3.319-2.615,6.085-6.717,8.298-12.306c0-0.068,0.045-0.21,0.138-0.422
		c0.184-0.353,0.276-0.637,0.276-0.85c0-0.068-0.048-0.141-0.138-0.212c-0.186-0.139-0.276-0.28-0.276-0.424
		c0.091-0.282,0.276-0.53,0.553-0.741c0.276-0.071,0.83-0.108,1.659-0.108c0.277,0,1.059-0.212,2.351-0.635
		c0.553-0.143,0.921-0.247,1.106-0.32c3.133-0.848,5.532-1.341,7.191-1.485c0.737,0.073,1.152,0.32,1.245,0.743
		c0,0.356-0.138,0.53-0.415,0.53h-0.553c-1.016,0-2.029,0.073-3.042,0.212c1.013,0.424,1.474,0.85,1.383,1.273
		c0,0.144-0.048,0.32-0.138,0.53c-0.093,0.285-0.139,0.496-0.139,0.637c0.368-0.068,0.875-0.141,1.521-0.212
		c0.644-0.139,1.106-0.21,1.383-0.21c0.277,0,0.553,0,0.83,0c0.367,0.143,0.506,0.354,0.415,0.636c0,0.424-0.507,0.637-1.521,0.637
		c-1.106,0.071-2.075,0.212-2.904,0.422c-0.187,0.85-0.277,1.77-0.277,2.759c4.426-0.494,8.067-0.636,10.926-0.424
		c0.553,0.284,1.013,0.602,1.383,0.955c-0.093,0.495-0.37,0.742-0.83,0.742c-0.093,0-0.415-0.035-0.968-0.106
		c0.367,0.071,0.184,0.037-0.553-0.106c-4.148-0.353-7.931-0.247-11.34,0.318l0.139,1.485c0.184-0.07,0.505-0.106,0.968-0.106
		c0.46-0.069,0.782-0.106,0.968-0.106c0.368-0.07,0.83-0.106,1.383-0.106c1.66,0.143,2.58,0.602,2.766,1.379
		c0,0.283-0.139,0.53-0.415,0.742c-0.093,0.071-0.186,0.249-0.276,0.531c-0.093,0.212-0.187,0.389-0.277,0.53
		c-0.462,1.203-0.923,2.015-1.383,2.439c-0.186,0.424-0.415,0.636-0.692,0.636h-0.83c-0.369,0-0.922,0.037-1.66,0.106
		c-2.122,0.071-3.643,0.355-4.563,0.849c-0.186,0.071-0.462,0.177-0.83,0.318c-0.093,0.071-0.186,0.106-0.276,0.106
		c-0.646-0.282-0.968-0.53-0.968-0.742c-0.093-0.212-0.138-0.424-0.138-0.637c-0.093-1.13-0.324-2.297-0.691-3.5
		c0-0.141-0.048-0.282-0.138-0.424V403.248z M174.541,392.533c-1.753,0.354-3.781,0.887-6.085,1.593
		c-1.015,2.617-2.075,4.879-3.181,6.788c1.383-0.069,3.088-0.459,5.117-1.167c0.184-0.565,0.277-1.342,0.277-2.333
		c-0.646,0.212-1.062,0.39-1.245,0.53c-0.093,0-0.139,0.037-0.139,0.106c-0.093,0.071-0.276,0.106-0.553,0.106
		c-0.369-0.353-0.601-0.636-0.691-0.848c0-0.212,0.229-0.353,0.691-0.424c-0.093,0.071-0.047,0.071,0.138,0
		c0.46-0.07,0.969-0.212,1.521-0.424c0.184-0.141,0.322-0.212,0.415-0.212c0-0.353-0.138-0.742-0.415-1.167c0-0.07,0-0.176,0-0.318
		c-0.093-0.141-0.138-0.247-0.138-0.318c0-0.284,0.229-0.459,0.691-0.532c0.461,0,0.83,0.177,1.107,0.532
		c0.184,0.141,0.367,0.495,0.553,1.061c0.091,0.071,0.139,0.143,0.139,0.212c0.184-0.069,0.367-0.141,0.553-0.212
		c0.46-0.07,1.014-0.176,1.66-0.318c0-0.141,0.045-0.388,0.138-0.742c0.184-0.424,0.277-0.743,0.277-0.955
		C175.371,393.276,175.094,392.959,174.541,392.533z M165.275,411.097v-0.106l2.489-1.591c0-0.07,0.045-0.141,0.138-0.212
		c0.276-0.353,0.553-0.53,0.83-0.53c0.92,0.071,1.429,0.424,1.521,1.061c-0.462,0.708-1.891,1.273-4.287,1.697
		C165.504,411.415,165.275,411.311,165.275,411.097z M169.286,389.245v-0.106c0.091-0.353,0.367-0.565,0.83-0.636
		c0.829,0.071,2.074,0.566,3.734,1.485c0.091,0.143,0.138,0.283,0.138,0.424c0.091,0.636-0.186,0.955-0.83,0.955
		c-0.37,0-0.739-0.07-1.106-0.212c-0.093,0-0.186,0-0.277,0c-0.276-0.282-0.739-0.636-1.383-1.061
		C169.93,389.742,169.562,389.458,169.286,389.245z M170.392,403.884c0,0.354,0.091,0.742,0.277,1.167
		c0.184-0.069,0.553-0.141,1.106-0.212c0.83-0.212,1.335-0.353,1.521-0.424c0.09-0.282,0.138-0.777,0.138-1.485
		C172.236,403.213,171.222,403.531,170.392,403.884z M171.083,407.384c0.92-0.141,1.66-0.318,2.213-0.53
		c0.09-0.07,0.09-0.353,0-0.849c0-0.282,0-0.494,0-0.636c-0.922,0.143-1.752,0.354-2.489,0.636
		C170.991,406.854,171.083,407.315,171.083,407.384z M172.466,399.323c1.107-0.212,1.889-0.388,2.352-0.53c0-0.777,0-1.626,0-2.546
		c-0.922,0.212-1.66,0.424-2.213,0.637C172.604,397.238,172.557,398.05,172.466,399.323z M175.371,404.945
		c-0.093,0.283-0.187,0.779-0.277,1.485c0.09,0,0.367,0,0.83,0c0.644-0.069,1.059-0.106,1.245-0.106
		c0.461-0.07,0.737-0.282,0.83-0.636c0.091-0.212,0.229-0.637,0.415-1.273c0.277-0.636,0.46-1.096,0.554-1.379
		c0.091-0.141,0.138-0.318,0.138-0.53c0-0.212-0.138-0.318-0.415-0.318c-1.199-0.07-2.306,0-3.319,0.212c0,0.071,0,0.177,0,0.318
		c-0.093,0.567-0.093,0.92,0,1.061c0.184,0,0.46-0.035,0.83-0.106c0.367-0.069,0.598-0.106,0.692-0.106
		c0.276,0,0.644,0.143,1.105,0.424c0.091,0.283,0,0.46-0.276,0.53c-0.092,0-0.231,0-0.415,0
		C176.201,404.663,175.555,404.804,175.371,404.945z M177.86,408.339c0.091-0.212,0.277-0.318,0.553-0.318
		c1.197,0.142,2.628,0.708,4.288,1.697c0.83,0.496,1.106,1.202,0.83,2.123c-0.093,0.28-0.369,0.459-0.83,0.529
		c-0.646,0-1.106-0.353-1.383-1.059c-0.093-0.144-0.138-0.25-0.138-0.32c-0.646-0.777-1.521-1.414-2.627-1.909
		C178.089,408.94,177.86,408.694,177.86,408.339z"/>
	<path fill="none" stroke="#000000" stroke-miterlimit="10" d="M207.179,410.885c0-0.143,0.046-0.284,0.139-0.424
		c0.09-0.07,0.138-0.139,0.138-0.21c0.091-0.355,0.139-0.814,0.139-1.381c0-0.212,0-0.388,0-0.53c0-1.767,0-3.57,0-5.409
		c0-0.282-0.048-0.424-0.139-0.424l-0.277,0.212c-4.242,4.173-7.699,6.47-10.372,6.895c-0.094,0-0.139-0.106-0.139-0.316v-0.108
		c1.014-0.494,2.489-1.485,4.425-2.97c2.213-1.838,3.873-3.358,4.979-4.561c0.277-0.282,0.277-0.424,0-0.424
		c-0.369,0-1.016,0.249-1.936,0.743c-0.83,0.496-1.43,0.742-1.798,0.742c-0.369,0-0.646-0.176-0.829-0.53
		c0.183-0.212,0.322-0.424,0.415-0.636c0.09-0.212-0.463-1.273-1.66-3.182c-0.186-0.424-0.324-0.671-0.415-0.743
		c0-0.069-0.093-0.247-0.276-0.53c-0.186-0.282-0.324-0.424-0.415-0.424v-0.106c0-0.424,0.737-0.671,2.212-0.744
		c0.554,0,0.831,0.108,0.831,0.32c0,0.212-0.048,0.39-0.139,0.53c0.83-0.282,2.074-0.742,3.734-1.379
		c0.644-0.212,1.106-0.353,1.383-0.426v-2.12c-0.462,0-1.154,0.212-2.075,0.635c-0.553,0.144-0.922,0.249-1.106,0.32h-0.138
		c-0.923-0.071-1.431-0.32-1.521-0.743c0-0.142,0.091-0.247,0.276-0.319l0.139-0.106h1.245c0.553-0.141,1.521-0.388,2.904-0.742
		c0.276-0.068,0.367-0.176,0.276-0.317c0-0.283,0-0.602,0-0.956c0-0.212-0.093-0.459-0.276-0.743
		c-0.186-0.212-0.277-0.388-0.277-0.53c0-0.282,0.229-0.424,0.692-0.424c1.29,0.071,1.936,0.284,1.936,0.637
		c0,0.142-0.047,0.318-0.138,0.53c-0.186,0.283-0.231,0.567-0.138,0.849c0,0.142,0.09,0.177,0.276,0.107
		c0.276-0.071,0.691-0.214,1.245-0.426c0.554-0.141,0.92-0.247,1.106-0.316c0.46,0,0.691,0.21,0.691,0.635
		c0,0.283-0.187,0.46-0.553,0.53c-0.093,0.071-0.508,0.144-1.245,0.212c-0.462,0.073-0.785,0.106-0.968,0.106
		c-0.369,0.143-0.601,0.32-0.691,0.532c-0.093,0.283-0.093,0.635,0,1.059c0,0.285,0,0.53,0,0.744
		c-0.093,0.354,0.045,0.496,0.415,0.424c0.644-0.07,1.335-0.212,2.074-0.424c1.014-0.214,1.844-0.318,2.49-0.318
		c2.213,0.354,3.458,0.92,3.734,1.697c0,0.354-0.138,0.602-0.415,0.742c-0.093,0.143-0.324,0.249-0.691,0.318
		c-0.277,0.283-0.691,0.673-1.245,1.167c-0.923,1.061-1.707,1.734-2.351,2.016c-0.553,0.212-1.016,0.249-1.383,0.106
		c-1.752,0.212-2.582,0.46-2.489,0.743c0,0.354,0.045,0.636,0.138,0.848c1.383,1.416,4.378,3.076,8.989,4.985
		c1.473,0.567,3.41,0.92,5.808,1.061c1.014,0.212,1.567,0.602,1.66,1.167c0.091,0.143,0,0.212-0.276,0.212
		c-2.583,0.285-4.657,0.285-6.224,0c-1.845-0.424-5.026-2.191-9.542-5.303c-0.092-0.141-0.186-0.176-0.276-0.106
		c-0.093,0.071-0.138,0.177-0.138,0.318c0,0.212,0,0.496,0,0.849c0.184,1.697,0.276,3.076,0.276,4.137v0.955
		c0,1.767-0.324,2.617-0.968,2.545C207.685,412.086,207.27,411.662,207.179,410.885z M206.625,400.066
		c0.368-0.07,0.553-0.282,0.553-0.637c0-0.565,0-0.989,0-1.273c-0.37,0.071-0.877,0.318-1.521,0.743
		c-0.463,0.354-0.83,0.496-1.107,0.424c-0.462-0.07-0.739-0.282-0.83-0.636c0-0.282,0.46-0.565,1.383-0.849
		c0.737-0.212,1.291-0.424,1.66-0.636c0.277-0.141,0.415-0.318,0.415-0.531c0-0.565,0-0.883,0-0.955
		c-1.568,0.355-3.273,1.061-5.117,2.122c0.091,0.636,0.599,1.697,1.521,3.182C204.32,400.808,205.333,400.49,206.625,400.066z
		 M208.838,398.05c0,0.424,0,0.885,0,1.379c1.66-0.282,2.766-0.6,3.319-0.955c1.197-1.272,1.937-2.121,2.213-2.545
		c0.367-0.494,0.229-0.814-0.415-0.955c-1.476-0.141-3.181-0.035-5.117,0.318v1.167c0.46,0,0.875,0,1.245,0
		c0.277,0,0.46,0.249,0.553,0.743c-0.093,0.212-0.37,0.318-0.83,0.318c-0.277,0.071-0.462,0.106-0.553,0.106
		C208.884,397.626,208.746,397.769,208.838,398.05z"/>
	<path fill="none" stroke="#000000" stroke-miterlimit="10" d="M242.445,412.265c0.09,0,0.138-0.037,0.138-0.108
		c0.184,0,0.367-0.036,0.553-0.104c0.183-1.839,0.183-3.854,0-6.047c-2.675,2.758-5.394,4.316-8.159,4.667
		c-0.277,0.07-0.463,0-0.554-0.212c2.766-1.13,5.162-2.864,7.191-5.197c-3.135,0.636-5.901,1.272-8.298,1.909
		c-0.186,0-0.37,0.071-0.553,0.212c-0.462,0.143-0.83,0.212-1.106,0.212c-0.739,0-1.106-0.388-1.106-1.167
		c0-0.282,0.229-0.424,0.691-0.424c0.09,0,0.277,0.071,0.553,0.212c0.277,0.143,0.506,0.212,0.691,0.212
		c2.49-0.636,6.038-1.448,10.649-2.439c0.091-0.849-0.139-1.379-0.691-1.591c-0.186,0-0.415,0.071-0.692,0.212
		c-0.186,0.071-0.324,0.106-0.415,0.106c-0.553,0-0.877-0.176-0.967-0.53l0.138-0.318c0.367,0,0.553-0.106,0.553-0.318
		c0-0.141-0.047-0.282-0.138-0.424c0-0.07-0.093-0.318-0.276-0.743l-0.276-0.742c-0.094-0.141-0.187-0.353-0.277-0.637
		c-0.369-0.636-0.553-1.095-0.553-1.379c0-0.424,0.23-0.6,0.692-0.53c0.09,0,0.184,0.037,0.276,0.106
		c0.091,0.071,0.184,0.106,0.277,0.106c0.184,0,0.367-0.035,0.553-0.106c0-0.212,0.229-0.671,0.692-1.381c0-0.068,0-0.174,0-0.316
		c0.09-0.565,0.367-0.883,0.83-0.956c0.737,0.213,1.152,0.566,1.245,1.062c-0.093,0.143-0.415,0.424-0.968,0.849
		c-0.369,0.283-0.553,0.46-0.553,0.53c0.276-0.07,0.691-0.212,1.245-0.424c1.383-0.424,2.396-0.636,3.042-0.636
		c0.276-0.07,0.506,0,0.691,0.212c0.644,0.284,0.599,0.814-0.138,1.591c-0.277,0.566-0.692,1.874-1.245,3.924
		c-0.276,0.143-0.692,0.249-1.245,0.318c-0.462,0.071-0.922,0.142-1.382,0.212c0.737,0.354,1.29,0.849,1.66,1.485
		c0.367-0.069,0.92-0.141,1.659-0.212c3.779-0.494,6.545-0.743,8.298-0.743c1.29,0,2.074,0.037,2.351,0.106
		c0.644,0.143,0.968,0.355,0.968,0.637c0,0.424-0.37,0.636-1.107,0.636c-0.369,0-0.968-0.035-1.798-0.106
		c-0.829-0.07-1.476-0.106-1.936-0.106c-2.952,0-5.763,0.249-8.436,0.742c1.936,1.556,4.563,3.149,7.883,4.773
		c0.276,0.144,1.059,0.249,2.351,0.318c2.489,0.143,3.734,0.39,3.734,0.743c0,0.424-0.691,0.6-2.075,0.53h-0.138
		c-1.66,0-2.628,0.037-2.904,0.106c-0.093,0-0.231,0-0.415,0c-0.923-0.283-3.458-1.732-7.606-4.349
		c-0.554-0.282-0.923-0.494-1.107-0.637c0,0.355,0,0.849,0,1.485c0.091,1.98,0.046,3.464-0.138,4.456
		c0,0.494-0.047,0.811-0.138,0.955c-0.093,0.351-0.324,0.565-0.691,0.635C243.136,413.147,242.628,412.688,242.445,412.265z
		 M238.296,400.49c0.367,0,0.782,0.318,1.244,0.955c0.091,0.071,0.139,0.142,0.139,0.212c0.367,0.567,0.229,0.849-0.415,0.849
		c-0.093,0-0.186-0.035-0.276-0.106c-0.187,0-0.325,0-0.416,0c-0.093,0-0.324,0.036-0.692,0.106
		c-0.646,0.354-1.476,0.708-2.489,1.061h-0.277c-0.553,0-0.83-0.141-0.83-0.424c0-0.141,0.091-0.353,0.276-0.636
		c0.184-0.141,0.277-0.247,0.277-0.318c0.184-0.212,0.46-0.53,0.83-0.955c0.091-0.212,0.184-0.353,0.276-0.424
		c-0.553,0.071-1.292,0.284-2.212,0.637c-0.923,0.354-1.614,0.53-2.074,0.53c-0.463,0-0.692-0.212-0.692-0.637
		c0-0.069,0.045-0.106,0.138-0.106c0.554-0.353,1.059-0.6,1.521-0.742c0.83-0.494,1.751-1.343,2.766-2.546
		c0.184-0.212,0.322-0.388,0.415-0.53c0.091-0.07,0.138-0.141,0.138-0.212c0.091-0.07,0.139-0.247,0.139-0.531
		c0.091-0.565,0.368-0.85,0.83-0.85c0.737,0.144,1.197,0.426,1.383,0.85c0,0.212-0.138,0.424-0.416,0.637
		c-1.292,1.272-2.675,2.333-4.148,3.182c1.014-0.212,1.937-0.388,2.766-0.531c0.091-0.141,0.229-0.353,0.416-0.636
		c0.367-0.424,0.505-0.671,0.415-0.743c0-0.212,0.139-0.353,0.415-0.424c0.83-0.069,1.245,0.106,1.245,0.531
		c0,0.071-0.277,0.389-0.83,0.955c-0.923,1.061-1.614,1.909-2.075,2.545c0.92-0.141,1.567-0.424,1.936-0.849
		c-0.093-0.141-0.186-0.247-0.276-0.318C237.833,400.596,238.019,400.42,238.296,400.49z M246.317,392.533
		c-0.276,0.284-0.553,0.673-0.83,1.168c-0.369,0.567-0.691,0.991-0.967,1.273c-0.463,0.141-0.692,0.036-0.692-0.318
		c0.46-0.567,0.692-1.13,0.692-1.697c-0.277,0-1.016,0.141-2.213,0.423c-0.554,0.144-0.923,0.249-1.106,0.32
		c0.184,0.354,0.229,0.635,0.138,0.847c-0.186,0.497-0.369,0.78-0.553,0.85c-0.37,0-0.739-0.318-1.106-0.955
		c-0.093-0.141-0.186-0.247-0.277-0.318c-0.922,0.21-1.936,0.53-3.042,0.955c-0.922,0.354-1.66,0.53-2.213,0.53
		c-0.83-0.07-1.292-0.318-1.382-0.744c0.091-0.282,0.276-0.422,0.553-0.422c0.184,0,0.368,0,0.553,0
		c0.276,0.071,0.46,0.104,0.553,0.104c1.014-0.141,2.442-0.529,4.287-1.167c0.277-0.068,0.46-0.139,0.553-0.21
		c0-0.141,0-0.32,0-0.532c0-0.282-0.093-0.635-0.276-1.061c-0.187-0.282-0.277-0.565-0.277-0.849c0-0.353,0.506-0.528,1.521-0.528
		c0.367,0,0.553,0.175,0.553,0.528v0.214c-0.093,0.141-0.138,0.247-0.138,0.317c0.09,0.354,0.229,0.848,0.415,1.486l3.734-0.85
		c0.277-0.849,0.46-1.659,0.553-2.439c-0.093-0.07-0.185-0.141-0.276-0.212c-0.553-0.353-0.83-0.706-0.83-1.061
		c0.091-0.212,0.46-0.318,1.106-0.318h0.138c0.184,0.143,0.506,0.356,0.968,0.637c0.737,0.283,1.106,0.53,1.106,0.742
		c0,0.071-0.093,0.212-0.276,0.424c-0.093,0.073-0.139,0.143-0.139,0.214c0,0.21-0.093,0.567-0.276,1.061
		c-0.093,0.21-0.139,0.388-0.139,0.53c0.46-0.071,1.197-0.213,2.213-0.426c0.921-0.141,1.613-0.247,2.075-0.318
		c0.92-0.141,1.798-0.212,2.627-0.212c0.737,0,1.107,0.179,1.107,0.53v0.106c-0.277,0.212-0.508,0.39-0.692,0.53
		c-0.277,0.143-0.922,0.212-1.936,0.212C250.097,391.97,248.16,392.182,246.317,392.533z M242.168,400.384l0.139,1.167
		c1.105-0.212,2.027-0.424,2.766-0.637c0.184-1.061,0.505-2.368,0.968-3.924c-1.846,0.212-3.458,0.602-4.84,1.167
		c0.184,0.284,0.322,0.708,0.415,1.273c0.46-0.069,0.92-0.212,1.383-0.424c0.46-0.141,0.782-0.212,0.968-0.212
		c0.46,0.071,0.737,0.177,0.83,0.318c0.091,0.212-0.092,0.389-0.553,0.53C242.674,399.713,241.982,399.959,242.168,400.384z
		 M249.498,397.414c0.091,0.143,0.415,0.212,0.968,0.212c0.644-0.848,0.83-1.308,0.553-1.379c0.184-0.494,0.553-0.671,1.106-0.53
		c0.83,0.212,1.245,0.567,1.245,1.061v0.106c-0.739,0.071-2.029,1.167-3.873,3.288l2.351-0.424c-0.646-0.565-0.646-0.883,0-0.955
		c1.383,0.354,2.213,0.813,2.489,1.379c-0.093,0.354-0.324,0.567-0.691,0.636c-0.462,0-0.923-0.247-1.383-0.742l-0.415,0.106
		c-0.276,0.143-0.462,0.212-0.553,0.212c-0.277,0.143-0.691,0.284-1.245,0.424c-0.83,0.212-1.43,0.53-1.798,0.955h-0.138
		c-0.276,0-0.507-0.141-0.691-0.424c-0.093-0.141-0.186-0.212-0.277-0.212c-0.093-0.212,0-0.353,0.277-0.424
		c0.644-0.353,1.335-1.061,2.074-2.122c-0.739,0.071-1.199-0.035-1.383-0.318c-0.186-0.353-0.093-0.777,0.276-1.273
		c0.553-0.706,1.059-1.485,1.521-2.333v-0.107c0-0.068-0.047-0.141-0.138-0.212c-0.186-0.139-0.277-0.28-0.277-0.424
		c0-0.422,0.229-0.598,0.691-0.53c0.091,0,0.229,0.071,0.416,0.212c0.09,0.073,0.183,0.107,0.276,0.107
		c0.737,0.141,1.106,0.388,1.106,0.743c0,0.141-0.324,0.495-0.968,1.061C250.189,396.354,249.682,396.99,249.498,397.414z"/>
	<path fill="none" stroke="#000000" stroke-miterlimit="10" d="M275.359,401.763l-0.139,0.106c0.184,1.416,0.276,3.219,0.276,5.411
		c-0.37,2.264-0.83,3.462-1.383,3.605c-0.37,0-0.784-0.143-1.245-0.424c-0.276-0.21-0.462-0.494-0.553-0.849
		c0-0.068,0.09-0.106,0.276-0.106c0.276,0,0.415-0.035,0.415-0.106c0.091-0.141,0.139-0.247,0.139-0.318
		c0.276-0.636,0.415-1.767,0.415-3.394c0-1.697-0.093-2.864-0.276-3.5c-0.093-0.07-0.231,0-0.415,0.212
		c-2.029,2.121-4.149,3.606-6.361,4.455c-0.277,0-0.415-0.106-0.415-0.318c0-0.141,0.138-0.318,0.415-0.53
		c2.766-2.121,4.747-4.206,5.947-6.258c-0.093-0.07-0.231-0.07-0.416,0c-0.276,0.071-0.738,0.249-1.382,0.53
		c-0.554,0.212-0.969,0.354-1.245,0.424c-0.186,0.071-0.507,0.212-0.968,0.424c-1.383,0.779-2.537,1.167-3.458,1.167
		c-1.292,0-1.936-0.318-1.936-0.955c0-0.212,0.138-0.282,0.415-0.212c0.184,0,0.322,0,0.415,0c0.553,0.071,0.875,0.106,0.968,0.106
		c0.367-0.07,0.599-0.141,0.691-0.212c0.921-0.282,1.474-0.459,1.66-0.53c0.553-0.282,2.351-1.024,5.394-2.228
		c0.46-0.141,0.644-0.388,0.553-0.743c0-0.353-0.047-0.706-0.139-1.061c0-0.07-0.092-0.141-0.276-0.212
		c-0.276-0.069-0.415-0.175-0.415-0.318c0-0.424,0.322-0.637,0.968-0.637c0.46,0,0.968,0.07,1.521,0.212
		c-0.092,0-0.047,0.036,0.138,0.106c0.184,0.071,0.368,0.249,0.553,0.53c0.091,0.284,0.277,0.424,0.554,0.424
		c0.184,0,0.46-0.035,0.83-0.106c0.276-0.07,0.505-0.106,0.691-0.106c0.644,0,0.968,0.177,0.968,0.53
		c0,0.424-0.277,0.673-0.83,0.742c-0.093,0-0.186,0-0.277,0l-0.415,0.106c-1.106,0.424-1.707,0.673-1.798,0.742v1.379
		c0,0.283,0.598,0.708,1.798,1.273c1.383,0.567,2.074,1.026,2.074,1.379c-0.093,0.567-0.324,0.813-0.691,0.742
		c-0.276,0-0.784-0.247-1.521-0.742C276.141,402.011,275.636,401.763,275.359,401.763z M276.88,392.64
		c-0.093,0.073-0.277,0.107-0.553,0.107c-0.186,0-0.415,0.037-0.691,0.104c-1.106,0.568-2.628,1.099-4.563,1.593
		c-0.462,0.071-0.647-0.07-0.554-0.424c1.197-0.777,2.489-1.52,3.873-2.229c0-0.14-0.093-0.317-0.277-0.53
		c-0.186-0.212-0.276-0.353-0.276-0.424c0-0.212,0.184-0.318,0.553-0.318c1.843,0.496,2.856,0.92,3.042,1.273
		C277.434,392.286,277.248,392.57,276.88,392.64z M286.285,412.37c0-0.141,0-0.317,0-0.529c0-0.214,0.045-0.497,0.138-0.85
		c0.09-0.354,0.138-0.565,0.138-0.636c-0.093-2.475-0.276-4.914-0.553-7.319c0.091-0.282-0.186-0.424-0.83-0.424
		c-1.016,0.071-2.489,0.461-4.425,1.167c-0.739,0.283-1.338,0.495-1.798,0.636c-0.093,0.071-0.324,0.177-0.691,0.318
		c-1.016,0.495-1.707,0.742-2.074,0.742c-0.37,0-0.553-0.318-0.553-0.955c0.46-0.07,1.013-0.282,1.66-0.636
		c0.46-0.212,0.83-0.353,1.106-0.424c2.396-0.777,4.703-1.449,6.915-2.015c0.46-0.141,0.691-0.353,0.691-0.637
		c0.091-2.474-0.231-6.081-0.968-10.82c-0.093-0.07-0.186-0.141-0.276-0.212c-0.554-0.28-0.83-0.53-0.83-0.742
		c0-0.282,0.276-0.424,0.83-0.424c1.75,0.212,2.672,0.568,2.765,1.061c0,0.073,0,0.143,0,0.214
		c-0.093,0.141-0.138,0.247-0.138,0.318c0,0.566,0,1.165,0,1.803c0,1.202,0.091,3.006,0.277,5.41
		c0.091,1.203,0.138,2.121,0.138,2.758c-0.093,0.143-0.047,0.249,0.138,0.318c0.091,0.071,0.229,0.071,0.415,0
		c0.553-0.07,1.383-0.247,2.489-0.531c1.75-0.424,3.133-0.636,4.149-0.636c1.014,0,1.521,0.212,1.521,0.636
		s-0.093,0.673-0.277,0.743c-0.092,0-0.369,0-0.83,0c-0.646,0.071-1.061,0.106-1.245,0.106c-3.872,0.496-5.994,0.885-6.361,1.167
		c0,0.071,0.045,0.249,0.138,0.53v0.212c0,0.92,0.091,2.299,0.277,4.137c0.09,1.769,0.138,3.041,0.138,3.818c0,0.07,0,0.141,0,0.212
		s0,0.212,0,0.426c0.091,1.059,0,1.803-0.276,2.228c-0.093,0.212-0.231,0.282-0.415,0.212
		C287.021,413.679,286.561,413.218,286.285,412.37z M278.401,393.806c0-0.212,0.229-0.316,0.691-0.316
		c2.213,0.636,3.596,1.485,4.149,2.545c0.09,0.424-0.324,0.567-1.245,0.424c-0.83-0.638-1.476-1.061-1.936-1.273
		c-0.093-0.071-0.276-0.176-0.553-0.32C278.769,394.516,278.401,394.161,278.401,393.806z M278.816,398.687v-0.106
		c0-0.212,0.229-0.318,0.691-0.318c0.184,0,0.322,0,0.416,0c0.09,0,0.367,0.071,0.83,0.212c0.09,0,0.229,0.037,0.415,0.106
		c1.197,0.212,1.75,0.637,1.66,1.273c0.091,0.212-0.138,0.318-0.691,0.318C280.753,400.102,279.646,399.606,278.816,398.687z"/>
	<path fill="none" stroke="#000000" stroke-miterlimit="10" d="M331.369,410.142c0,0.284-1.292,0.426-3.873,0.426
		c-0.093,0-0.276,0-0.553,0c-0.83,0.068-1.476,0.033-1.936-0.107c-1.569,0-3.135-0.777-4.702-2.333
		c-1.292-0.99-3.043-2.546-5.255-4.667c-1.199-1.13-2.123-1.979-2.766-2.546c-1.016,5.234-3.92,8.098-8.713,8.592
		c-0.369,0-0.601-0.07-0.691-0.21c4.702-1.627,7.192-4.526,7.468-8.699c0-0.565-0.185-0.777-0.553-0.637
		c-0.37,0.071-0.923,0.249-1.66,0.531c-1.292,0.495-2.351,0.742-3.181,0.742c-0.83-0.141-1.292-0.353-1.383-0.636
		c0-0.353,0.229-0.53,0.691-0.53c0.091,0,0.322-0.035,0.691-0.106h0.553c0.46-0.141,1.152-0.353,2.074-0.636
		c0.921-0.282,1.612-0.459,2.075-0.53c0.554-0.212,0.875-0.671,0.968-1.379c0-0.212,0-0.388,0-0.53c0-2.122,0-4.244,0-6.366
		c0-0.141-0.277-0.247-0.83-0.316c-0.646-0.071-0.968-0.249-0.968-0.532c0.091-0.353,1.106-0.671,3.042-0.955
		c0.644,0,0.968,0.318,0.968,0.955c0,0.849-0.048,2.122-0.138,3.82c-0.093,1.768-0.139,3.112-0.139,4.03
		c0.644,0,1.751-0.318,3.319-0.955c0.554-0.212,0.921-0.353,1.107-0.424c2.12-0.849,3.779-1.274,4.979-1.274
		c0.644,0,0.968,0.285,0.968,0.85c0,0.212-0.186,0.318-0.553,0.318c-4.059,0.779-7.146,1.769-9.266,2.97
		c3.042,3.466,6.639,6.683,10.787,9.652c0.644,0.354,2.628,0.602,5.947,0.743c0.46,0.071,0.782,0.106,0.968,0.106
		C331.183,409.577,331.369,409.789,331.369,410.142z"/>
	<path fill="none" stroke="#000000" stroke-miterlimit="10" d="M336.348,404.309v-0.743c0.091-0.141,0.184-0.247,0.277-0.318
		c0.83-1.272,1.29-2.015,1.383-2.227l0.139-0.106c0.184-0.212,0.367-0.318,0.553-0.318c0.553,0.071,0.83,0.318,0.83,0.742
		c-0.739,1.769-1.431,2.935-2.074,3.5C336.992,404.839,336.625,404.663,336.348,404.309z M339.806,401.869
		c0.09-0.353,0.322-0.565,0.691-0.636h1.521c0.184-0.07,0.322-0.176,0.415-0.318c0-0.141-0.093-0.353-0.276-0.636
		c-0.093-0.212-0.138-0.353-0.138-0.424c0-0.069,0-0.176,0-0.318c-0.37-3.182-1.338-4.668-2.904-4.455c0-0.282,0-0.532,0-0.744
		c0-0.21,0.367-0.424,1.106-0.635l0.138-0.107c1.474-1.767,2.352-3.005,2.628-3.711c0-0.071,0-0.141,0-0.214
		c-0.093-0.141-0.138-0.282-0.138-0.424c0-0.282,0.276-0.424,0.829-0.424c0.277-0.069,0.599,0.071,0.968,0.424
		c0.184,0.071,0.322,0.143,0.415,0.212c0.46,0.071,0.553,0.354,0.277,0.848v0.106c-0.186,0.143-0.415,0.285-0.692,0.424
		c-0.276,0.142-0.462,0.249-0.553,0.318c-0.83,0.92-1.707,1.733-2.627,2.44c0,0.073-0.048,0.144-0.139,0.212
		c-0.093,0.073-0.139,0.144-0.139,0.214l0.139,0.106v0.106l0.83,0.635l0.692-0.318c1.014-0.637,1.705-0.955,2.074-0.955
		c0.367,0,0.553,0.179,0.553,0.532c0.091,0.21-0.369,0.567-1.383,1.061c-0.553,0.354-0.968,0.602-1.244,0.743
		c0.09,0.071,0.184,0.212,0.276,0.424c0.09,0.212,0.138,0.354,0.138,0.424c0.368-0.07,0.782-0.212,1.245-0.424
		c0.553-0.212,0.968-0.353,1.245-0.424c0.46,0,0.691,0.143,0.691,0.424c-0.093,0.566-1.016,1.061-2.766,1.485
		c-0.092,0.92-0.047,1.803,0.138,2.652c2.49-0.849,6.362-1.767,11.617-2.758c0.277-0.849,0.415-1.414,0.415-1.697
		c-0.646,0-1.383-0.035-2.213-0.106c-0.739-0.212-1.154-0.424-1.245-0.637c0-0.353,0.367-0.53,1.106-0.53
		c0.46,0.071,1.335,0.104,2.627,0.104c0.091-0.282,0.229-0.706,0.415-1.272c0.091-0.352,0.138-0.564,0.138-0.635
		c-1.845,0.284-2.952,0.037-3.319-0.742c0-0.283,0.322-0.426,0.968-0.426c0.184,0,0.322,0.036,0.415,0.106
		c1.013,0,1.75,0.107,2.213,0.32c0-0.143,0.045-0.32,0.138-0.532c0.184-0.777,0.322-1.308,0.415-1.591c0-0.21,0-0.352,0-0.424
		c-0.369,0-0.877,0.037-1.521,0.106c-0.739,0.143-1.292,0.212-1.66,0.212c-0.739,0-1.106-0.176-1.106-0.53
		c0-0.28,0.367-0.424,1.106-0.424c0.184-0.07,0.322-0.104,0.415-0.104c0.46-0.071,1.059-0.214,1.798-0.426l0.138-0.106
		c0.46-0.282,0.921-0.424,1.383-0.424h0.277l1.66,1.379c0.091,0.071,0.184,0.248,0.276,0.532c0,0.141-0.186,0.354-0.553,0.635
		c-0.186,0.143-0.324,0.283-0.415,0.426c-0.646,1.626-1.337,3.818-2.074,6.576c2.303-0.141,3.962-0.106,4.978,0.106
		c2.304,0.496,3.458,1.132,3.458,1.909c-0.093,0.779-0.922,1.132-2.489,1.061l-4.149,0.636h-0.138c-0.553,0-0.877-0.07-0.968-0.212
		l0.276-0.106l3.596-1.379l0.277-0.212v-0.106c-0.463-0.494-2.213-0.637-5.256-0.424c-0.462,0.496-0.784,0.779-0.968,0.849h-0.276
		c-0.186,0-0.324-0.106-0.415-0.318c0-0.212-0.139-0.318-0.415-0.318c-1.476,0.143-3.781,0.602-6.915,1.379
		c-0.646,0.143-1.106,0.249-1.383,0.318c-0.462,0.143-1.154,0.424-2.074,0.849c-1.66,0.708-2.859,1.061-3.596,1.061
		C340.22,402.542,339.896,402.293,339.806,401.869z M347.55,412.37c0.091,0,0.139-0.037,0.139-0.104
		c0.553,0.068,1.058,0.104,1.521,0.104h0.83c0.46-0.141,0.875-0.6,1.245-1.379c0.091-0.071,0.138-0.143,0.138-0.21
		c0.46-1.699,0.368-3.29-0.276-4.775c-1.383,0.284-2.766,0.637-4.148,1.061c-1.292,0.424-2.399,0.602-3.32,0.53
		c-0.369-0.07-0.553-0.212-0.553-0.424c0-0.353,0.46-0.565,1.383-0.637c0.184-0.069,0.322-0.106,0.415-0.106
		c1.659-0.424,3.503-0.849,5.532-1.272c-0.553-0.637-1.154-1.096-1.798-1.379c-0.276-0.141-0.324-0.318-0.138-0.531
		c0.276-0.141,0.599-0.175,0.968-0.106c0.091,0,0.277,0.071,0.553,0.212c0.184,0.071,0.322,0.142,0.415,0.212
		c0.644-0.282,1.197-0.883,1.66-1.803c-0.093,0.071-0.324,0.143-0.692,0.212c-2.029,0.636-3.367,1.097-4.01,1.379
		c-0.277,0.212-0.601,0.318-0.968,0.318c-0.646-0.069-0.968-0.282-0.968-0.636v-0.106c0.091-0.07,0.184-0.176,0.277-0.318
		c0.644-0.706,1.245-1.061,1.798-1.061c0.184,0,0.367,0.071,0.553,0.212c0.09,0.071,0.184,0.106,0.277,0.106h0.138
		c0.644-0.141,1.705-0.459,3.181-0.955c0.276-0.069,0.506-0.141,0.691-0.212c0.091-0.424,0.229-0.706,0.415-0.849
		c0.277,0,0.46,0,0.553,0c1.198,0.071,1.843,0.496,1.937,1.273v0.424l-0.138,0.106c-1.476,0.779-2.721,1.591-3.734,2.439
		c0.184,0.212,0.46,0.424,0.831,0.637c1.566-0.141,3.686-0.141,6.361,0c0.276,0.212,0.415,0.424,0.415,0.636
		c0.091,0.424-0.186,0.602-0.83,0.53h-0.138c-1.936-0.212-3.688-0.247-5.255-0.106c0.553,1.273,0.83,2.652,0.83,4.137
		c-0.739,2.191-1.66,3.429-2.766,3.712C349.669,413.29,348.563,412.863,347.55,412.37z M345.89,394.336
		c0.83-0.706,1.612-1.589,2.351-2.652c-0.186-0.069-0.415-0.141-0.691-0.21c-1.106-0.354-1.614-0.706-1.521-1.062
		c0.09-0.21,0.367-0.353,0.83-0.424c0.183,0,0.367,0.071,0.553,0.214c0.367,0.21,0.83,0.388,1.383,0.528
		c0.184-0.212,0.368-0.528,0.553-0.955c0.184-0.353,0.322-0.565,0.415-0.636c-0.646-0.353-0.968-0.565-0.968-0.636
		c0-0.28,0.415-0.424,1.245-0.424c0.644-0.07,1.198,0.036,1.66,0.318l0.139,0.106c0.183,0.071,0.276,0.177,0.276,0.318
		c0,0.143-0.139,0.356-0.415,0.637c-0.646,0.566-1.153,1.132-1.521,1.697c0.183,0.073,0.46,0.212,0.83,0.424
		c1.29,0.426,1.843,0.814,1.659,1.168c0.091,0.283-0.138,0.424-0.691,0.424l-0.553-0.212c-0.739-0.426-1.383-0.706-1.936-0.85
		c-1.752,1.697-2.859,2.547-3.319,2.547l-0.138-0.107c-0.093,0-0.139-0.033-0.139-0.104V394.336z M352.252,397.52
		c0.09,0.071,0.138,0.143,0.138,0.212c-0.276,0.566-0.784,0.673-1.521,0.318c-0.186-0.141-0.601-0.388-1.245-0.742
		c-1.383,1.272-2.443,1.98-3.181,2.121c-0.186-0.069-0.231-0.106-0.138-0.106c1.106-1.202,1.843-2.156,2.213-2.864
		c-0.186-0.141-0.508-0.282-0.968-0.424c-0.553-0.282-0.83-0.53-0.83-0.743c0.091-0.069,0.139-0.141,0.139-0.212
		c0.183,0,0.322,0,0.414,0c0.46,0,1.107,0.177,1.937,0.53c0.276-0.353,0.415-0.777,0.415-1.274c0-0.068,0-0.176,0-0.316
		c-0.093-0.07-0.138-0.141-0.138-0.214c0-0.212,0.368-0.246,1.106-0.104h0.138c0.737,0.071,1.152,0.283,1.245,0.635
		c0,0.071-0.138,0.249-0.415,0.53c-0.553,0.496-0.968,0.955-1.245,1.38C351.146,396.671,351.79,397.096,352.252,397.52z"/>
</g>
</svg>
